<svg width="588" height="132" viewBox="0 0 588 132" fill="none" xmlns="http://www.w3.org/2000/svg">
<path d="M95.9 64.2077C103.31 57.7877 106.76 51.2077 106.76 41.1677C106.76 36.7277 105.94 32.1177 104.29 27.8377C98.37 12.6877 84.21 7.42773 68.74 7.42773H37.13V28.6477C43.82 28.5377 49.82 28.5777 54.91 28.6777V23.7077H68.41C71.04 23.7077 73.55 23.9377 75.86 24.4577C79.94 25.3577 83.38 27.1477 85.72 30.1277C87.79 32.7577 88.99 36.3077 88.99 40.9977C88.99 53.1777 80.93 58.1177 69.4 58.1177H54.94C54.74 58.2677 37.14 75.0677 37.14 75.0677V129.228H73.52C89.32 129.228 104.3 123.958 111.05 108.488C113.02 103.878 114.01 98.9377 114.01 93.8377C114.01 80.1777 107.43 70.7977 95.9 64.2077ZM74.17 112.428H54.91V73.9077H72.03C79.93 73.9077 86.85 74.5677 91.95 81.3177C94.58 84.6077 96.23 89.0577 96.23 93.3377C96.23 105.848 85.7 112.438 74.17 112.438V112.428Z" fill="#FFFFFF"/>
<path d="M65.55 35.6077L14.98 35.5277L18.56 42.6277C7.27 51.4677 0 65.2277 0 80.6877C0 94.1177 5.48 106.268 14.33 115.018C11.05 109.068 9.19 102.238 9.19 94.9677C9.19 80.5977 16.48 67.9277 27.55 60.4477L31.91 69.0877L65.55 35.6177V35.6077Z" fill="#FFFFFF"/>
<path d="M142.66 6.21782C138.85 0.0778241 130.82 -1.84218 124.66 1.93782C118.49 5.74782 116.57 13.7878 120.38 19.9478C124.18 26.1178 132.22 28.0278 138.37 24.2178C144.56 20.4478 146.47 12.3778 142.66 6.21782Z" fill="#FFFFFF"/>
<path d="M123.26 129.008V37.1577H139.63V129.008H123.26Z" fill="#FFFFFF"/>
<path d="M229.11 129.008V117.738C224.88 122.138 220.16 125.458 214.96 127.718C209.75 129.968 204.2 131.098 198.3 131.098C184.49 131.098 173.03 126.488 163.9 117.278C154.77 108.068 150.21 96.5277 150.21 82.6677C150.21 76.2077 151.35 70.0877 153.63 64.2977C155.91 58.5077 159.17 53.4177 163.4 49.0177C168.02 44.1777 173.07 40.5977 178.56 38.2877C184.04 35.9777 190.29 34.8277 197.31 34.8277C203.54 34.8277 209.32 35.9377 214.64 38.1677C219.95 40.3977 224.84 43.7577 229.29 48.2677V7.42773H245.82V128.998H229.12L229.11 129.008ZM167.32 82.4977C167.32 91.7977 170.4 99.5877 176.55 105.878C182.7 112.168 190.23 115.318 199.14 115.318C207.27 115.318 214.43 112.158 220.64 105.838C226.85 99.5177 229.95 92.1277 229.95 83.6677C229.95 74.6477 226.87 66.9277 220.72 60.4977C214.57 54.0677 207.26 50.8577 198.8 50.8577C190.34 50.8577 182.7 53.9177 176.55 60.0377C170.4 66.1577 167.32 73.6477 167.32 82.4977Z" fill="#FFFFFF"/>
<path d="M347.74 97.6977C343.9 108.778 338.19 117.168 330.62 122.878C323.05 128.588 313.84 131.438 302.98 131.438C296.13 131.438 289.92 130.258 284.36 127.888C278.79 125.518 273.76 121.978 269.25 117.238C264.96 112.728 261.61 107.478 259.19 101.498C256.77 95.5177 255.56 89.4077 255.56 83.1677C255.56 76.9277 256.66 70.7677 258.86 65.1777C261.06 59.5877 264.3 54.4777 268.59 49.8577C273.32 44.7977 278.64 40.9477 284.54 38.3377C290.44 35.7177 296.76 34.4177 303.49 34.4177C314.01 34.4177 323.14 37.3277 330.88 43.1477C338.62 48.9677 344.24 57.1377 347.75 67.6577H329.63C326.74 62.0377 323 57.8377 318.44 55.0477C313.88 52.2677 308.42 50.8777 302.07 50.8777C293.89 50.8777 286.94 53.9677 281.24 60.1477C275.53 66.3277 272.68 73.9577 272.68 83.0277C272.68 92.0977 275.57 99.8677 281.36 105.988C287.15 112.108 294.36 115.168 302.99 115.168C308.78 115.168 314.01 113.648 318.69 110.618C323.37 107.588 327.01 103.288 329.63 97.7177H347.75L347.74 97.6977Z" fill="#FFFFFF"/>
<path d="M354.4 83.1678C354.4 76.6578 355.5 70.5778 357.7 64.9278C359.9 59.2778 363.14 54.1978 367.43 49.6878C372.05 44.7378 377.25 40.9178 383.04 38.2478C388.83 35.5778 394.84 34.2378 401.08 34.2378C407.76 34.2378 413.95 35.4378 419.66 37.8278C425.37 40.2178 430.53 43.7578 435.15 48.4278C439.66 53.0478 443.12 58.2578 445.55 64.0378C447.97 69.8278 449.18 75.8078 449.18 81.9878C449.18 88.1678 448.05 94.3978 445.8 100.358C443.55 106.318 440.39 111.518 436.32 115.968C431.64 121.088 426.4 124.968 420.58 127.618C414.76 130.258 408.57 131.588 402 131.588C395.43 131.588 389.06 130.378 383.38 127.958C377.7 125.538 372.61 121.958 368.1 117.228C363.81 112.718 360.46 107.468 358.04 101.488C355.62 95.5078 354.41 89.3978 354.41 83.1578L354.4 83.1678ZM371.52 82.9978C371.52 92.1778 374.43 99.8378 380.25 105.958C386.07 112.078 393.32 115.138 402 115.138C410.68 115.138 417.66 112.058 423.42 105.908C429.18 99.7578 432.06 92.0578 432.06 82.8178C432.06 73.5778 429.18 65.8378 423.42 59.7678C417.66 53.6978 410.46 50.6678 401.84 50.6678C393.22 50.6678 386.07 53.7478 380.26 59.8978C374.44 66.0478 371.53 73.7478 371.53 82.9878L371.52 82.9978Z" fill="#FFFFFF"/>
<path d="M515.37 82.6678C515.37 71.4778 513.79 63.3578 510.63 58.2878C507.47 53.2278 502.45 50.6878 495.58 50.6878C488.71 50.6878 483.25 53.2378 479.86 58.3278C476.48 63.4178 474.79 71.3078 474.79 81.9978V129.008H459.09V37.1578H473.79V47.9278C476.84 43.8078 480.3 40.7378 484.15 38.6978C488.01 36.6678 492.4 35.6478 497.34 35.6478C504 35.6478 509.55 36.9278 513.98 39.4878C518.42 42.0478 522.05 46.0578 524.88 51.5078C527.73 46.1678 531.49 42.1878 536.18 39.5678C540.87 36.9478 546.59 35.6478 553.34 35.6478C563.72 35.6478 572.04 39.0278 578.29 45.7878C584.54 52.5478 587.67 61.5878 587.67 72.8878V128.998H571.05V75.4778C571.05 67.6278 569.33 61.5378 565.89 57.1878C562.45 52.8478 557.66 50.6778 551.51 50.6778C544.35 50.6778 539.21 52.9878 536.08 57.6078C532.95 62.2278 531.38 70.0178 531.38 80.9878V128.998H515.35V82.6578L515.37 82.6678Z" fill="#FFFFFF"/>
<path d="M123.26 129.238V37.3878H139.63V129.238H123.26Z" fill="#FFFFFF"/>
<path d="M229.11 129.238V117.968C224.88 122.368 220.16 125.688 214.96 127.948C209.75 130.198 204.2 131.328 198.3 131.328C184.49 131.328 173.03 126.718 163.9 117.508C154.77 108.298 150.21 96.7577 150.21 82.8977C150.21 76.4377 151.35 70.3177 153.63 64.5277C155.91 58.7377 159.17 53.6477 163.4 49.2477C168.02 44.4077 173.07 40.8277 178.56 38.5177C184.04 36.2077 190.29 35.0577 197.31 35.0577C203.54 35.0577 209.32 36.1677 214.64 38.3977C219.95 40.6277 224.84 43.9877 229.29 48.4977V7.65771H245.82V129.228H229.12L229.11 129.238ZM167.32 82.7277C167.32 92.0277 170.4 99.8177 176.55 106.108C182.7 112.398 190.23 115.548 199.14 115.548C207.27 115.548 214.43 112.388 220.64 106.068C226.85 99.7477 229.95 92.3577 229.95 83.8977C229.95 74.8777 226.87 67.1577 220.72 60.7277C214.57 54.2977 207.26 51.0877 198.8 51.0877C190.34 51.0877 182.7 54.1477 176.55 60.2677C170.4 66.3877 167.32 73.8777 167.32 82.7277Z" fill="#FFFFFF"/>
<path d="M347.74 97.9178C343.9 108.998 338.19 117.388 330.62 123.098C323.05 128.808 313.84 131.658 302.98 131.658C296.13 131.658 289.92 130.478 284.36 128.108C278.79 125.738 273.76 122.198 269.25 117.458C264.96 112.948 261.61 107.698 259.19 101.718C256.77 95.7378 255.56 89.6278 255.56 83.3878C255.56 77.1478 256.66 70.9878 258.86 65.3978C261.06 59.8078 264.3 54.6978 268.59 50.0778C273.32 45.0178 278.64 41.1678 284.54 38.5578C290.44 35.9378 296.76 34.6378 303.49 34.6378C314.01 34.6378 323.14 37.5478 330.88 43.3678C338.62 49.1878 344.24 57.3578 347.75 67.8778H329.63C326.74 62.2578 323 58.0578 318.44 55.2678C313.88 52.4878 308.42 51.0978 302.07 51.0978C293.89 51.0978 286.94 54.1878 281.24 60.3678C275.53 66.5478 272.68 74.1778 272.68 83.2478C272.68 92.3178 275.57 100.088 281.36 106.208C287.15 112.328 294.36 115.388 302.99 115.388C308.78 115.388 314.01 113.868 318.69 110.838C323.37 107.808 327.01 103.508 329.63 97.9378H347.75L347.74 97.9178Z" fill="#FFFFFF"/>
<path d="M354.4 83.3878C354.4 76.8778 355.5 70.7978 357.7 65.1478C359.9 59.4978 363.14 54.4178 367.43 49.9078C372.05 44.9578 377.25 41.1378 383.04 38.4678C388.83 35.7978 394.84 34.4578 401.08 34.4578C407.76 34.4578 413.95 35.6578 419.66 38.0478C425.37 40.4378 430.53 43.9778 435.15 48.6478C439.66 53.2678 443.12 58.4778 445.55 64.2578C447.97 70.0478 449.18 76.0278 449.18 82.2078C449.18 88.3878 448.05 94.6178 445.8 100.578C443.55 106.538 440.39 111.738 436.32 116.188C431.64 121.308 426.4 125.188 420.58 127.838C414.76 130.478 408.57 131.808 402 131.808C395.43 131.808 389.06 130.598 383.38 128.178C377.7 125.758 372.61 122.178 368.1 117.448C363.81 112.938 360.46 107.688 358.04 101.708C355.62 95.7278 354.41 89.6178 354.41 83.3778L354.4 83.3878ZM371.52 83.2178C371.52 92.3978 374.43 100.058 380.25 106.178C386.07 112.298 393.32 115.358 402 115.358C410.68 115.358 417.66 112.278 423.42 106.128C429.18 99.9778 432.06 92.2778 432.06 83.0378C432.06 73.7978 429.18 66.0578 423.42 59.9878C417.66 53.9178 410.46 50.8878 401.84 50.8878C393.22 50.8878 386.07 53.9678 380.26 60.1178C374.44 66.2678 371.53 73.9678 371.53 83.2078L371.52 83.2178Z" fill="#FFFFFF"/>
<path d="M515.37 82.8878C515.37 71.6978 513.79 63.5778 510.63 58.5078C507.47 53.4478 502.45 50.9078 495.58 50.9078C488.71 50.9078 483.25 53.4578 479.86 58.5478C476.48 63.6378 474.79 71.5278 474.79 82.2178V129.228H459.09V37.3878H473.79V48.1578C476.84 44.0378 480.3 40.9678 484.15 38.9278C488.01 36.8978 492.4 35.8778 497.34 35.8778C504 35.8778 509.55 37.1578 513.98 39.7178C518.42 42.2778 522.05 46.2878 524.88 51.7378C527.73 46.3978 531.49 42.4178 536.18 39.7978C540.87 37.1778 546.59 35.8778 553.34 35.8778C563.72 35.8778 572.04 39.2578 578.29 46.0178C584.54 52.7778 587.67 61.8178 587.67 73.1178V129.228H571.05V75.7078C571.05 67.8578 569.33 61.7678 565.89 57.4178C562.45 53.0778 557.66 50.9078 551.51 50.9078C544.35 50.9078 539.21 53.2178 536.08 57.8378C532.95 62.4578 531.38 70.2478 531.38 81.2178V129.228H515.35V82.8878H515.37Z" fill="#FFFFFF"/>
</svg>
